<svg width="48" height="48" viewBox="0 0 48 48" fill="none" xmlns="http://www.w3.org/2000/svg">
<path d="M17.0102 16C16.7547 16 16.4875 16.0859 16.2924 16.2808C15.9025 16.6715 15.9025 17.327 16.2924 17.7178L22.5646 23.9943L16.2924 30.2708C15.9025 30.6615 15.9025 31.317 16.2924 31.7077C16.6825 32.0974 17.3379 32.0974 17.728 31.7077L24 25.4312L30.272 31.7077C30.6621 32.0974 31.3175 32.0974 31.7076 31.7077C32.0975 31.317 32.0975 30.6615 31.7076 30.2708L25.4354 23.9943L31.7076 17.7178C32.0975 17.327 32.0975 16.6715 31.7076 16.2808C31.5125 16.0859 31.2452 16 30.9898 16C30.7343 16 30.4672 16.0859 30.272 16.2808L24 22.5573L17.728 16.2808C17.5329 16.0859 17.2657 16 17.0102 16Z" fill="#45349F"/>
<path d="M8 1H40C43.866 1 47 4.13401 47 8V40C47 43.866 43.866 47 40 47H8C4.13401 47 1 43.866 1 40V8C1 4.13401 4.13401 1 8 1Z" stroke="#5038BC" stroke-width="2"/>
</svg>
